<?xml version="1.0" encoding="UTF-8"?>
<svg width="128pt" height="128pt" version="1.1" viewBox="0 0 128 128" xmlns="http://www.w3.org/2000/svg">
 <g>
  <path d="m38.695 58.047h3.7773l12.672-20.875 0.92188-20.582c0.078125-1.6641 1.4844-2.9453 3.1484-2.8672 22.977 1.0234 17.574 23.195 14.004 39.141l33.691 1.2812c6.8867-0.12891 12.965 13.707 2.5078 18.434 1.1914 1.1523 2.293 2.5859 3.0703 4.3516 2.0859 4.6719-1.6914 7.2969-5.7852 8.7422 1.4219 1.4219 2.625 3.2773 3.1367 5.6445 1.0742 5.0703-3.8789 7.5-8.6406 8.6523 1.4844 1.4727 2.8555 3.2656 3.6484 5.3633 3.5977 9.5742-10.344 8.9453-10.379 8.9453-15.117-0.67969-30.258-1.2031-45.391-1.8047-1.2031-0.050781-2.2031-0.79297-2.6367-1.832l-1.8438-4.043-5.7344 0.20312c-1.6523 0.050781-3.0469-1.2539-3.0977-2.9062-0.47266-13.977-0.039063-28.789-0.0625-42.855 0-1.6641 1.3438-2.9961 2.9961-2.9961z"/>
  <path d="m15.973 58.508h13.785c1.6641 0 3.0078 1.3555 3.0078 3.0078v41.703c0 1.6641-1.3438 3.0078-3.0078 3.0078h-13.785c-1.6641 0-3.0078-1.3438-3.0078-3.0078v-41.703c0-1.6523 1.3438-3.0078 3.0078-3.0078z"/>
 </g>
</svg>
