<?xml version="1.0" encoding="UTF-8"?>
<svg width="128pt" height="128pt" version="1.1" viewBox="0 0 128 128" xmlns="http://www.w3.org/2000/svg">
 <g>
  <path d="m119.65 58.051c-1.7891-0.12891-3.5781 1.4062-4.0859 3.3203l-3.3203 9.5781c-0.89453 1.6602-2.1719 0.25391-2.043-0.51172s2.6836-19.031 2.6836-19.031c0.38281-1.918 0.12891-3.832-1.7891-4.2148-1.918-0.38281-3.3203 1.0195-3.7031 2.9375 0 0-2.6836 17.117-3.4492 18.777-0.76562 1.6602-1.5312 1.1484-1.5312-0.12891 0-0.76562 1.2773-21.332 1.2773-21.332 0.12891-1.918-0.64062-3.7031-2.5547-3.832-1.918-0.12891-2.8125 1.4062-2.9375 3.3203 0 0-1.918 20.055-2.043 21.461-0.12891 1.4062-1.4062 1.5312-1.6602 0s-1.0195-17.883-1.0195-17.883c0-1.918-0.89453-3.5781-2.8125-3.5781-1.918 0-2.8125 1.6602-2.8125 3.5781 0 0-0.12891 16.73 0 19.801 0.12891 3.3203 0.25391 11.625-1.918 11.879-2.043 0.25391-5.2383-2.1719-7.0234-4.8555-1.5312-2.1719-4.2148-3.5781-7.0234-3.1953-4.0859 0.51172-1.6602 3.7031 1.1484 6.7695 6.0039 6.5156 7.5352 9.9648 10.473 14.305 1.918 2.9375 6.3867 7.6641 14.562 7.5352 10.984-0.12891 17.117-4.4727 18.523-23.375 0.25391-4.2148 3.4492-17.5 3.9609-19.031 0.24609-0.24609 0.11719-2.293-0.90234-2.293z"/>
  <path d="m7.1328 60.352c0.51172 1.5312 3.7031 14.816 3.9609 19.031 1.4062 18.906 7.5352 23.246 18.523 23.375 8.1758 0.12891 12.645-4.5977 14.562-7.5352 2.9375-4.3438 4.4727-7.793 10.473-14.305 2.8125-3.0664 5.2383-6.2578 1.1484-6.7695-2.8125-0.38281-5.4922 1.0195-7.0234 3.1953-1.7891 2.6836-4.9805 5.1094-7.0234 4.8555-2.1719-0.25391-2.043-8.5586-1.918-11.879 0.12891-3.0664 0-19.801 0-19.801 0-1.918-0.89453-3.5781-2.8125-3.5781-1.918 0-2.8125 1.6602-2.8125 3.5781 0 0-0.76563 16.348-1.0195 17.883-0.25391 1.5312-1.5312 1.4062-1.6602 0s-2.043-21.461-2.043-21.461c-0.125-1.918-1.0195-3.4492-2.9375-3.3203-1.918 0.125-2.6836 1.918-2.5547 3.832 0 0 1.2773 20.566 1.2773 21.332 0 1.2773-0.76563 1.7891-1.5312 0.12891-0.76563-1.6602-3.4492-18.777-3.4492-18.777-0.38281-1.918-1.7891-3.3203-3.7031-2.9375-1.918 0.38281-2.1719 2.3008-1.7891 4.2148 0 0 2.5547 18.266 2.6836 19.031 0.125 0.76563-1.1484 2.1719-2.043 0.51172l-3.3203-9.5781c-0.51172-1.918-2.3008-3.4492-4.0859-3.3203-1.0312-0.007813-1.1562 2.0391-0.90234 2.293z"/>
  <path d="m61.809 22.723h4.1055v21.898h-4.1055z"/>
  <path d="m48.633 25.922 3.8594-1.4062 7.4883 20.578-3.8594 1.4062z"/>
  <path d="m37.277 33.238 3.1445-2.6406 14.078 16.773-3.1445 2.6406z"/>
  <path d="m73.18 47.125 14.078-16.773 3.1445 2.6406-14.078 16.773z"/>
  <path d="m67.762 44.898 7.4883-20.578 3.8594 1.4062-7.4883 20.578z"/>
 </g>
</svg>
